<svg width="52" height="61" viewBox="0 0 52 61" fill="none" xmlns="http://www.w3.org/2000/svg">
<path d="M8.16051 49V12.6364H32.2372V18.9751H15.8487V27.6399H30.6392V33.9787H15.8487V49H8.16051Z" fill="#ECECEC"/>
<path d="M40.8873 12.6364L36.1998 38.7727H32.0804L36.0577 12.6364H40.8873ZM32.9327 49.2841C32.0331 49.2841 31.2814 48.9763 30.6777 48.3608C30.074 47.7334 29.7604 46.9759 29.7367 46.0881C29.7248 45.2003 30.0385 44.4605 30.6777 43.8686C31.3169 43.2649 32.0686 42.9631 32.9327 42.9631C33.8087 42.9631 34.5662 43.2708 35.2054 43.8864C35.8446 44.5019 36.1524 45.2358 36.1287 46.0881C36.1169 46.6799 35.963 47.2185 35.6671 47.7038C35.383 48.1892 34.9983 48.5739 34.513 48.858C34.0395 49.142 33.5127 49.2841 32.9327 49.2841Z" fill="#C6C6C6"/>
<line y1="31.5" x2="52" y2="31.5" stroke="#69D038" stroke-width="3" stroke-linejoin="round"/>
</svg>
