<svg width="153" height="61" viewBox="0 0 153 61" fill="none" xmlns="http://www.w3.org/2000/svg">
<path d="M17.1605 49V12.6364H41.2372V18.9751H24.8487V27.6399H39.6392V33.9787H24.8487V49H17.1605ZM54.1935 49.5327C51.3881 49.5327 48.9734 48.9645 46.9492 47.8281C44.9369 46.6799 43.3862 45.0582 42.2972 42.9631C41.2082 40.8561 40.6637 38.3643 40.6637 35.4879C40.6637 32.6825 41.2082 30.2204 42.2972 28.1016C43.3862 25.9827 44.9192 24.3314 46.896 23.1477C48.8846 21.964 51.2165 21.3722 53.8917 21.3722C55.6909 21.3722 57.3659 21.6622 58.9165 22.2422C60.479 22.8104 61.8403 23.6686 63.0004 24.8168C64.1722 25.965 65.0837 27.4091 65.7347 29.1491C66.3858 30.8774 66.7113 32.9015 66.7113 35.2216V37.299H43.6822V32.6115H59.5913C59.5913 31.5225 59.3545 30.5578 58.881 29.7173C58.4076 28.8769 57.7506 28.2199 56.9102 27.7464C56.0816 27.2611 55.1168 27.0185 54.016 27.0185C52.8678 27.0185 51.8498 27.2848 50.962 27.8175C50.0861 28.3383 49.3995 29.0426 48.9023 29.9304C48.4052 30.8063 48.1507 31.7829 48.1388 32.8601V37.3168C48.1388 38.6662 48.3874 39.8321 48.8846 40.8146C49.3936 41.7971 50.1097 42.5547 51.033 43.0874C51.9563 43.62 53.0513 43.8864 54.3178 43.8864C55.1583 43.8864 55.9277 43.768 56.6261 43.5312C57.3245 43.2945 57.9222 42.9394 58.4194 42.4659C58.9165 41.9924 59.2953 41.4124 59.5558 40.7259L66.5515 41.1875C66.1964 42.8684 65.4684 44.3362 64.3675 45.5909C63.2785 46.8338 61.8699 47.8045 60.1417 48.5028C58.4253 49.1894 56.4426 49.5327 54.1935 49.5327ZM69.1474 49V21.7273H76.7113V49H69.1474ZM72.9471 18.2116C71.8226 18.2116 70.8578 17.8388 70.0529 17.093C69.2598 16.3355 68.8633 15.4299 68.8633 14.3764C68.8633 13.3348 69.2598 12.4411 70.0529 11.6953C70.8578 10.9377 71.8226 10.5589 72.9471 10.5589C74.0716 10.5589 75.0304 10.9377 75.8235 11.6953C76.6284 12.4411 77.0309 13.3348 77.0309 14.3764C77.0309 15.4299 76.6284 16.3355 75.8235 17.093C75.0304 17.8388 74.0716 18.2116 72.9471 18.2116ZM94.7768 21.7273V27.4091H78.3528V21.7273H94.7768ZM82.0815 15.1932H89.6454V40.6193C89.6454 41.3177 89.752 41.8622 89.965 42.2528C90.1781 42.6316 90.474 42.898 90.8528 43.0518C91.2434 43.2057 91.6932 43.2827 92.2022 43.2827C92.5574 43.2827 92.9125 43.2531 93.2676 43.1939C93.6227 43.1229 93.8949 43.0696 94.0843 43.0341L95.274 48.6626C94.8952 48.781 94.3625 48.9171 93.676 49.071C92.9894 49.2367 92.1549 49.3374 91.1724 49.3729C89.3495 49.4439 87.7515 49.2012 86.3784 48.6449C85.0171 48.0885 83.9577 47.2244 83.2001 46.0526C82.4425 44.8807 82.0697 43.401 82.0815 41.6136V15.1932ZM109.233 49.5327C106.475 49.5327 104.09 48.9467 102.078 47.7749C100.077 46.5911 98.5327 44.9458 97.4437 42.8388C96.3547 40.7199 95.8102 38.2637 95.8102 35.4702C95.8102 32.6529 96.3547 30.1908 97.4437 28.0838C98.5327 25.965 100.077 24.3196 102.078 23.1477C104.09 21.964 106.475 21.3722 109.233 21.3722C111.992 21.3722 114.371 21.964 116.371 23.1477C118.384 24.3196 119.934 25.965 121.023 28.0838C122.112 30.1908 122.657 32.6529 122.657 35.4702C122.657 38.2637 122.112 40.7199 121.023 42.8388C119.934 44.9458 118.384 46.5911 116.371 47.7749C114.371 48.9467 111.992 49.5327 109.233 49.5327ZM109.269 43.6733C110.524 43.6733 111.571 43.3182 112.412 42.608C113.252 41.8859 113.885 40.9034 114.312 39.6605C114.75 38.4176 114.969 37.0031 114.969 35.4169C114.969 33.8307 114.75 32.4162 114.312 31.1733C113.885 29.9304 113.252 28.9479 112.412 28.2259C111.571 27.5038 110.524 27.1428 109.269 27.1428C108.002 27.1428 106.937 27.5038 106.073 28.2259C105.221 28.9479 104.576 29.9304 104.138 31.1733C103.711 32.4162 103.498 33.8307 103.498 35.4169C103.498 37.0031 103.711 38.4176 104.138 39.6605C104.576 40.9034 105.221 41.8859 106.073 42.608C106.937 43.3182 108.002 43.6733 109.269 43.6733Z" fill="#ECECEC"/>
<path d="M135.196 12.6364L130.508 38.7727H126.389L130.366 12.6364H135.196ZM127.241 49.2841C126.342 49.2841 125.59 48.9763 124.986 48.3608C124.383 47.7334 124.069 46.9759 124.045 46.0881C124.033 45.2003 124.347 44.4605 124.986 43.8686C125.626 43.2649 126.377 42.9631 127.241 42.9631C128.117 42.9631 128.875 43.2708 129.514 43.8864C130.153 44.5019 130.461 45.2358 130.437 46.0881C130.425 46.6799 130.272 47.2185 129.976 47.7038C129.692 48.1892 129.307 48.5739 128.822 48.858C128.348 49.142 127.821 49.2841 127.241 49.2841Z" fill="#C6C6C6"/>
<line y1="31.5" x2="153.003" y2="31.5" stroke="#69D038" stroke-width="3" stroke-linejoin="round"/>
</svg>
